<?xml version="1.0" encoding="UTF-8"?>
<svg id="_레이어_2" data-name="레이어 2" xmlns="http://www.w3.org/2000/svg" viewBox="0 0 380 420">
  <defs>
    <style>
      .cls-1 {
        fill: #fff;
      }

      .cls-1, .cls-2, .cls-3, .cls-4 {
        fill-rule: evenodd;
      }

      .cls-3 {
        fill: gray;
      }

      .cls-4 {
        fill: #333;
      }
    </style>
  </defs>
  <g id="_레이어_1-2" data-name="레이어 1">
    <path class="cls-2" d="M179.03,2.86c6.81-3.81,15.12-3.81,21.93,0l168.07,94.34c6.73,3.71,10.93,10.77,10.97,18.46v188.67c0,7.62-4.18,14.66-10.97,18.47l-168.07,94.34c-6.81,3.81-15.12,3.81-21.93,0L10.96,322.8c-6.73-3.72-10.92-10.78-10.96-18.46V115.67c0-7.62,4.18-14.66,10.97-18.47C44.51,78.37,145.49,21.7,179.03,2.86Z"/>
    <path class="cls-3" d="M3.04,314.04c-2.66-3.56-3.04-6.94-3.04-11.49V114.96c0-7.58,4.17-14.58,10.94-18.36L178.42,2.8c6.77-3.79,15.94-3.7,22.71.08,33.43,18.72,133.71,74.6,167.14,93.31,2.7,1.52,4.76,3.35,6.6,5.76L3.04,314.04Z"/>
    <path class="cls-4" d="M374.85,102.05c5.16,4.83,5.06,12.11,5.06,17.84,0,37.95-.32,145.9.09,183.84.04,3.96-1.27,8.13-3.23,11.27l-190.84-105,188.92-107.95Z"/>
    <path class="cls-1" d="M250.34,245.44c-12.17,20.67-34.65,34.56-60.34,34.56-38.63,0-70-31.37-70-70s31.36-70,70-70c25.28,0,47.44,13.43,59.75,33.54l60.79-34.73c-24.39-41.17-69.25-68.8-120.53-68.8-77.27,0-140,62.73-140,140s62.73,140,140,140c52.11,0,97.6-28.53,121.7-70.8l-61.36-33.76Z"/>
  </g>
</svg>