<?xml version="1.0" encoding="UTF-8"?>
<svg id="_레이어_2" data-name="레이어 2" xmlns="http://www.w3.org/2000/svg" viewBox="0 0 310 310">
  <defs>
    <style>
      .cls-1 {
        fill: #fff;
      }
    </style>
  </defs>
  <g id="_레이어_1-2" data-name="레이어 1">
    <path class="cls-1" d="M155,310C69.53,310,0,240.47,0,155S69.53,0,155,0s155,69.53,155,155-69.53,155-155,155ZM155,10C75.05,10,10,75.05,10,155s65.05,145,145,145,145-65.05,145-145S234.95,10,155,10Z"/>
    <path class="cls-1" d="M198.39,286.06c0-1.73.02-4.72.05-8.7.06-7.92.14-19.88.14-33.58,0-11.4-2.74-19.34-5.92-24.7,30.47-5.03,65.69-20.55,65.69-79.67,0-16.19-5.07-30.44-15.08-42.42,2.2-7.1,5.05-22.45-2.57-41.51l-.87-2.17-2.22-.73c-1.52-.5-15.48-4.23-44.73,15.09-12.02-3.16-24.64-4.77-37.55-4.77s-25.55,1.6-37.56,4.77c-29.21-19.12-43.13-15.59-44.65-15.11l-2.27.71-.88,2.2c-7.63,19.06-4.77,34.42-2.57,41.51-9.88,11.87-15.08,26.47-15.08,42.42,0,59.14,35.14,74.65,65.53,79.67-2.25,3.83-3.9,8.34-4.86,13.29-20.37,8.06-31.25-3.74-36-11.72l-.06-.09c-2.67-4.27-12.5-18.11-27.56-18.11-.13,0-.26,0-.39,0-2.55.04-10.29.15-11.78,6.25-1.63,6.7,7,11.91,9.61,13.3,4.79,2.67,11.7,14.52,13.52,19.11,2.76,7.7,7.72,13.61,14.75,17.55,9.11,5.1,21.41,6.66,36.64,4.62.03,6.28.08,12.1.13,16.29.03,2.96.05,5.24.05,6.5,0,.27-.04,1.12-.52,1.72,3.21,1,6.47,1.88,9.77,2.66.48-1.37.75-2.84.75-4.37,0-1.28-.02-3.59-.05-6.6-.06-5.77-.14-13.66-.14-22.04v-6l-5.91,1.09c-17.48,3.22-39.66,3.26-46.09-14.82l-.05-.15c-1.11-2.83-9.12-19.31-18.06-24.3-.45-.24-.87-.49-1.27-.75,9.63.67,16.67,11.06,18.09,13.33,6.76,11.33,16.47,17.88,28.07,18.95,9.83.9,18.66-2.32,23.05-4.32l2.51-1.15.37-2.74c1.38-10.24,5.68-15.33,8.13-17.46l8.59-7.47-11.31-1.27c-20.42-2.29-34.76-7.44-45.14-16.2-13.71-11.57-20.38-29.48-20.38-54.75,0-14.65,4.86-27.42,14.46-37.96l2.11-2.32-1.16-2.91c-1.48-3.7-5.6-16.67.48-34.21,4.55.08,16.12,1.91,35.9,15.23l1.92,1.29,2.23-.63c11.8-3.32,24.28-5,37.09-5s25.28,1.68,37.09,5l2.24.63,1.92-1.31c19.81-13.47,31.36-15.22,35.87-15.26,6.11,17.56,1.98,30.55.5,34.25l-1.16,2.91,2.11,2.32c9.59,10.53,14.46,23.3,14.46,37.96,0,25.34-6.69,43.27-20.46,54.81-10.38,8.71-24.76,13.83-45.25,16.14l-11.38,1.28,8.67,7.48c5.49,4.74,8.64,13.72,8.64,24.66,0,13.67-.09,25.61-.14,33.51-.03,4.01-.05,7.03-.05,8.77,0,1.5.24,2.94.7,4.29,3.28-.78,6.53-1.67,9.72-2.66-.3-.49-.42-1.12-.42-1.63Z"/>
  </g>
</svg>