<?xml version="1.0" encoding="UTF-8"?>
<svg id="_레이어_2" data-name="레이어 2" xmlns="http://www.w3.org/2000/svg" viewBox="0 0 296.15 296.06">
  <defs>
    <style>
      .cls-1 {
        fill: #5f5866;
      }

      .cls-2 {
        fill: #7a6491;
      }

      .cls-3 {
        fill: #d6c7e5;
      }
    </style>
  </defs>
  <g id="Layer">
    <g>
      <path class="cls-2" d="M124.44,296.06h92.44c.12-39.47.24-78.94.35-118.41h-92.79v118.41Z"/>
      <path class="cls-2" d="M251.82,46.88h-127.38v84.64h92.93c.05-18.28.11-36.56.16-54.84h47.07c.05,18.28.11,36.56.16,54.84h31.38v-55.82c0-30.63-18.18-57-44.33-68.95v40.13Z"/>
      <path class="cls-3" d="M71.96,0C31.88,2,0,35.12,0,75.7v144.57c0,40.57,31.88,73.7,71.96,75.7V0Z"/>
      <path class="cls-1" d="M264.91,177.65c.1,34.57.21,69.13.31,103.7,18.76-13.8,30.94-36.01,30.94-61.09v-42.61h-31.25Z"/>
    </g>
  </g>
</svg>