<?xml version="1.0" encoding="UTF-8"?>
<svg id="_레이어_2" data-name="레이어 2" xmlns="http://www.w3.org/2000/svg" viewBox="0 0 940.87 1275.71">
  <g id="_레이어_1-2" data-name="레이어 1">
    <path d="M303.02,986.58s-48.75,28.35,34.69,37.94c101.09,11.53,152.76,9.88,264.16-11.21,0,0,29.29,18.37,70.19,34.27-249.73,107.03-565.2-6.2-369.05-61.01M272.5,846.91s-54.68,40.47,28.83,49.11c107.99,11.14,193.27,12.05,340.84-16.36,0,0,20.41,20.69,52.51,32.01-301.95,88.29-638.26,6.96-422.17-64.76"/>
    <path d="M529.76,609.98c61.53,70.85-16.17,134.6-16.17,134.6,0,0,156.25-80.66,84.49-181.66-67.02-94.19-118.41-140.99,159.82-302.36,0,0-436.73,109.07-228.14,349.42"/>
    <path d="M860.06,1089.89s36.08,29.73-39.73,52.72c-144.15,43.67-599.97,56.85-726.59,1.74-45.52-19.8,39.84-47.28,66.69-53.05,28-6.07,44.01-4.94,44.01-4.94-50.62-35.66-327.19,70.02-140.49,100.29,509.18,82.57,928.19-37.18,796.11-96.76M326.46,702.2s-231.86,55.07-82.11,75.07c63.23,8.47,189.28,6.55,306.69-3.29,95.95-8.09,192.3-25.3,192.3-25.3,0,0-33.83,14.49-58.31,31.2-235.45,61.92-690.29,33.12-559.35-30.22,110.74-53.53,200.78-47.46,200.78-47.46M742.39,934.68c239.34-124.37,128.68-243.89,51.44-227.79-18.93,3.94-27.37,7.35-27.37,7.35,0,0,7.03-11.01,20.45-15.78,152.81-53.72,270.33,158.45-49.33,242.48,0,0,3.7-3.31,4.81-6.27"/>
    <path d="M598.08,0s132.55,132.6-125.72,336.49c-207.11,163.56-47.23,256.82-.09,363.37-120.89-109.08-209.61-205.09-150.09-294.46C409.54,274.23,651.56,210.62,598.08,0"/>
    <path d="M349.98,1271.7c229.74,14.71,582.53-8.16,590.89-116.87,0,0-16.06,41.21-189.87,73.94-196.09,36.9-437.94,32.59-581.38,8.94,0,0,29.36,24.3,180.36,33.99"/>
  </g>
</svg>