<?xml version="1.0" encoding="UTF-8"?>
<svg id="_레이어_2" data-name="레이어 2" xmlns="http://www.w3.org/2000/svg" viewBox="0 0 313.59 313.59">
  <g id="_레이어_1-2" data-name="레이어 1">
    <path d="M313.57,86.86c-.01-3.15-.06-6.31-.14-9.46-.18-6.87-.59-13.8-1.81-20.59-1.24-6.9-3.26-13.32-6.45-19.59-6.31-12.4-16.39-22.48-28.79-28.79-6.26-3.19-12.68-5.21-19.57-6.45-6.8-1.23-13.73-1.63-20.6-1.81-3.15-.08-6.31-.13-9.46-.14-3.75-.02-7.5-.02-11.24-.02h-117.4c-3.75,0-7.49,0-11.24.02-3.15.02-6.31.05-9.46.14-1.72.05-3.44.11-5.16.19-5.16.25-10.34.7-15.44,1.62-5.17.93-10.07,2.3-14.84,4.28-8.01,3.31-15.28,8.17-21.41,14.29-4.89,4.89-8.98,10.51-12.11,16.67-3.19,6.27-5.21,12.68-6.45,19.59-1.22,6.79-1.63,13.72-1.81,20.59-.08,3.15-.13,6.31-.14,9.46C0,90.61,0,94.35,0,98.09v117.4C0,219.25,0,222.99.02,226.74c.02,3.15.05,6.3.14,9.46.18,6.87.59,13.81,1.81,20.6,1.24,6.9,3.26,13.32,6.45,19.59,6.31,12.4,16.39,22.48,28.79,28.79,6.26,3.18,12.68,5.21,19.57,6.44,6.8,1.23,13.73,1.64,20.6,1.82,3.15.08,6.31.12,9.47.14,3.74.03,7.48.02,11.23.02h117.4c3.74,0,7.49,0,11.24-.02,3.15-.02,6.3-.06,9.46-.14,6.87-.18,13.8-.59,20.6-1.81,6.9-1.24,13.31-3.26,19.57-6.45,12.4-6.31,22.48-16.39,28.79-28.79,3.19-6.27,5.21-12.69,6.45-19.59,1.22-6.79,1.63-13.73,1.81-20.59.08-3.16.12-6.3.14-9.46.02-3.75.02-7.49.02-11.24v-117.4c0-3.75,0-7.49-.02-11.24ZM264.65,255.56c-14.08-27.4-40.32-20.41-53.6-13.51-1.1.65-2.23,1.28-3.36,1.89-.13.08-.3.16-.42.25l.02-.04c-27.65,14.69-64.77,15.78-102.1-.26-31.3-13.45-57.02-36.5-73.71-63.2,8.58,6.34,17.76,11.82,27.42,16.36,39.45,18.48,79.07,17.14,107.11-.02-39.91-30.7-73.22-70.66-98.76-103.05-4.92-5.81-9.38-11.84-13.14-18.11,30.59,28,78.9,63.15,96.24,72.88-36.8-38.88-69.22-86.75-67.7-85.22,57.95,58.4,111.43,91.41,111.43,91.41,2.01,1.11,3.51,2,4.7,2.78,1.1-2.81,2.09-5.71,2.91-8.73,9.26-33.82-1.16-72.51-24.72-104.44,53.76,32.28,85.52,93.59,72.5,145.45-.3,1.21-.66,2.38-1.01,3.56l.02.02h0c26.94,33.16,19.62,68.69,16.16,61.99Z"/>
  </g>
</svg>