<?xml version="1.0" encoding="UTF-8"?>
<svg id="_레이어_2" data-name="레이어 2" xmlns="http://www.w3.org/2000/svg" viewBox="0 0 310 310">
  <defs>
    <style>
      .cls-1 {
        fill: #fff;
      }
    </style>
  </defs>
  <g id="_레이어_1-2" data-name="레이어 1">
    <g>
      <path class="cls-1" d="M155,310C69.53,310,0,240.47,0,155S69.53,0,155,0s155,69.53,155,155-69.53,155-155,155ZM155,10C75.05,10,10,75.05,10,155s65.05,145,145,145,145-65.05,145-145S234.95,10,155,10Z"/>
      <path class="cls-1" d="M158.27,235.01c-11.77,0-21.33-9.57-21.32-21.32,0-11.74,9.56-21.3,21.31-21.3h.01c11.74,0,21.29,9.56,21.3,21.3,0,11.75-9.55,21.31-21.3,21.32ZM158.25,202.39c-6.23,0-11.3,5.07-11.31,11.3,0,6.24,5.07,11.31,11.3,11.31,6.25,0,11.32-5.08,11.31-11.31,0-6.23-5.07-11.3-11.3-11.3h0ZM157.95,182.83c-.14,0-.27,0-.41,0-5.69-.11-11-2.43-14.95-6.53-3.95-4.1-6.06-9.49-5.95-15.18.11-5.69,2.43-11,6.53-14.94,4.1-3.95,9.54-6.07,15.18-5.95,11.5.22,20.67,9.4,20.9,20.9.11,5.69-2,11.08-5.95,15.18-3.95,4.1-9.25,6.42-14.94,6.53-.14,0-.27,0-.41,0ZM157.95,150.22c-2.94,0-5.71,1.12-7.84,3.16-2.18,2.09-3.41,4.91-3.46,7.93-.06,3.02,1.06,5.88,3.16,8.06,2.09,2.18,4.91,3.41,7.93,3.46.14,0,.29,0,.44,0,6.23-.12,11.21-5.29,11.09-11.52-.12-6.1-4.99-10.97-11.09-11.09h0c-.07,0-.15,0-.22,0ZM210.13,130.66c-.14,0-.27,0-.41,0-11.75-.23-21.12-9.97-20.9-21.71.22-11.61,9.74-20.9,21.3-20.9.14,0,.28,0,.42,0h0c11.5.22,20.67,9.4,20.9,20.9.11,5.69-2,11.08-5.95,15.18s-9.25,6.42-14.95,6.53c-.14,0-.27,0-.41,0ZM210.12,98.04c-6.13,0-11.18,4.93-11.3,11.09-.12,6.23,4.85,11.4,11.09,11.52.14,0,.29,0,.44,0,3.02-.06,5.83-1.29,7.93-3.46,2.09-2.18,3.22-5.04,3.16-8.06-.12-6.1-4.99-10.97-11.09-11.09-.07,0-.15,0-.22,0ZM158.26,130.65c-11.75,0-21.3-9.56-21.3-21.31s9.56-21.31,21.3-21.31,21.31,9.56,21.31,21.31-9.56,21.31-21.31,21.31ZM158.26,98.04c-6.23,0-11.3,5.07-11.3,11.31s5.07,11.31,11.3,11.31,11.31-5.07,11.31-11.31-5.07-11.31-11.31-11.31ZM106.09,130.65c-11.75,0-21.31-9.56-21.31-21.31s9.56-21.31,21.31-21.31,21.31,9.56,21.31,21.31-9.56,21.31-21.31,21.31ZM106.09,98.04c-6.23,0-11.31,5.07-11.31,11.31s5.07,11.31,11.31,11.31,11.31-5.07,11.31-11.31-5.07-11.31-11.31-11.31Z"/>
    </g>
  </g>
</svg>