<?xml version="1.0" encoding="UTF-8"?>
<svg id="_레이어_2" data-name="레이어 2" xmlns="http://www.w3.org/2000/svg" viewBox="0 0 85.56 96.65">
  <g id="_레이어_1-2" data-name="레이어 1">
    <path d="M85.56,22.54L46.52,0v17.29l15.3,8.83c.41.24.54.77.3,1.18-.07.12-.18.23-.3.3l-18.18,10.5c-.53.31-1.19.31-1.72,0l-18.18-10.5c-.41-.24-.54-.77-.3-1.18.07-.12.18-.23.3-.3l15.26-8.83V0L0,22.54v45.08l15-8.62v-17.69c.01-.48.41-.86.89-.85.14,0,.28.04.4.11l18.18,10.5c.53.3.85.87.85,1.48v21c0,.47-.39.86-.87.85-.14,0-.28-.04-.4-.1l-15.3-8.84h-.02s-.03-.01-.03-.01l-15,8.65,39,22.54v-.02l.05.03.03-.02h0s39-22.53,39-22.53l-15-8.65h-.02s0,.01,0,.01l-15.3,8.84c-.42.21-.93.05-1.15-.37-.06-.12-.1-.26-.1-.39v-21c0-.61.33-1.18.86-1.48l18.18-10.5c.41-.21.92-.07,1.14.34.07.13.11.27.11.41v17.69l3.7,2.12,11.33,6.53v-.05l.04.02V22.54Z"/>
  </g>
</svg>