<svg xmlns="http://www.w3.org/2000/svg" viewBox="0 0 2255 1169"><svg id="d2-svg" width="2255" height="1169" class="d2-3922911491" viewBox="-89 -89 2255 1169"><rect width="2255.000000" height="1169.000000" x="-89.000000" y="-89.000000" stroke-width="0" rx="0.000000" style="fill:#fff"/><style>.connection,.shape{stroke-linejoin:round}.shape{shape-rendering:geometricPrecision}.connection{stroke-linecap:round}.d2-3922911491 .fill-N1{fill:#0a0f25}.d2-3922911491 .fill-N2{fill:#676c7e}.d2-3922911491 .fill-B6{fill:#eef1f8}.d2-3922911491 .stroke-B1{stroke:#0a0f25}</style><g id="a"><g class="shape"><path fill="#EEF1F8" stroke="#0A0F25" d="M819 12h440v66H819z" class="stroke-B1 fill-B6" style="stroke-width:2"/></g><text x="1039.000000" y="50.500000" fill="#0A0F25" class="text-bold fill-N1" style="text-anchor:middle;font-size:16px">㈜비바리퍼블리카</text></g><g id="b"><g class="shape"><path fill="#EEF1F8" stroke="#0A0F25" d="M12 449h145v66H12z" class="stroke-B1 fill-B6" style="stroke-width:2"/></g><text x="84.500000" y="487.500000" fill="#0A0F25" class="text-bold fill-N1" style="text-anchor:middle;font-size:16px">토스뱅크㈜</text></g><g id="c"><g class="shape"><path fill="#EEF1F8" stroke="#0A0F25" d="M177 449h145v66H177z" class="stroke-B1 fill-B6" style="stroke-width:2"/></g><text x="249.500000" y="487.500000" fill="#0A0F25" class="text-bold fill-N1" style="text-anchor:middle;font-size:16px">토스증권㈜</text></g><g id="d"><g class="shape"><path fill="#EEF1F8" stroke="#0A0F25" d="M342 449h205v66H342z" class="stroke-B1 fill-B6" style="stroke-width:2"/></g><text x="444.500000" y="487.500000" fill="#0A0F25" class="text-bold fill-N1" style="text-anchor:middle;font-size:16px">토스인슈어런스㈜</text></g><g id="e"><g class="shape"><path fill="#EEF1F8" stroke="#0A0F25" d="M567 449h185v66H567z" class="stroke-B1 fill-B6" style="stroke-width:2"/></g><text x="659.500000" y="487.500000" fill="#0A0F25" class="text-bold fill-N1" style="text-anchor:middle;font-size:16px">토스페이먼츠㈜</text></g><g id="f"><g class="shape"><path fill="#EEF1F8" stroke="#0A0F25" d="M772 449h165v66H772z" class="stroke-B1 fill-B6" style="stroke-width:2"/></g><text x="854.500000" y="487.500000" fill="#0A0F25" class="text-bold fill-N1" style="text-anchor:middle;font-size:16px">토스씨엑스㈜</text></g><g id="g"><g class="shape"><path fill="#EEF1F8" stroke="#0A0F25" d="M957 449h165v66H957z" class="stroke-B1 fill-B6" style="stroke-width:2"/></g><text x="1039.500000" y="487.500000" fill="#0A0F25" class="text-bold fill-N1" style="text-anchor:middle;font-size:16px">브이씨엔씨㈜</text></g><g id="h"><g class="shape"><path fill="#EEF1F8" stroke="#0A0F25" d="M925 676h229v66H925z" class="stroke-B1 fill-B6" style="stroke-width:2"/></g><text x="1039.500000" y="714.500000" fill="#0A0F25" class="text-bold fill-N1" style="text-anchor:middle;font-size:16px">유한회사 티엔에이엠</text></g><g id="i"><g class="shape"><path fill="#EEF1F8" stroke="#0A0F25" d="M785 913h229v66H785z" class="stroke-B1 fill-B6" style="stroke-width:2"/></g><text x="899.500000" y="951.500000" fill="#0A0F25" class="text-bold fill-N1" style="text-anchor:middle;font-size:16px">유한회사 편안한이동</text></g><g id="j"><g class="shape"><path fill="#EEF1F8" stroke="#0A0F25" d="M1034 913h289v66h-289z" class="stroke-B1 fill-B6" style="stroke-width:2"/></g><text x="1178.500000" y="951.500000" fill="#0A0F25" class="text-bold fill-N1" style="text-anchor:middle;font-size:16px">유한회사 편안한이동넥스트</text></g><g id="l"><g class="shape"><path fill="#EEF1F8" stroke="#0A0F25" d="M1164 449h185v66h-185z" class="stroke-B1 fill-B6" style="stroke-width:2"/></g><text x="1256.500000" y="487.500000" fill="#0A0F25" class="text-bold fill-N1" style="text-anchor:middle;font-size:16px">토스플레이스㈜</text></g><g id="m"><g class="shape"><path fill="#EEF1F8" stroke="#0A0F25" d="M1174 676h165v66h-165z" class="stroke-B1 fill-B6" style="stroke-width:2"/></g><text x="1256.500000" y="714.500000" fill="#0A0F25" class="text-bold fill-N1" style="text-anchor:middle;font-size:16px">㈜아이샵케어</text></g><g id="n"><g class="shape"><path fill="#EEF1F8" stroke="#0A0F25" d="M1369 449h165v66h-165z" class="stroke-B1 fill-B6" style="stroke-width:2"/></g><text x="1451.500000" y="487.500000" fill="#0A0F25" class="text-bold fill-N1" style="text-anchor:middle;font-size:16px">토스모바일㈜</text></g><g id="o"><g class="shape"><path fill="#EEF1F8" stroke="#0A0F25" d="M1369 676h165v66h-165z" class="stroke-B1 fill-B6" style="stroke-width:2"/></g><text x="1451.500000" y="714.500000" fill="#0A0F25" class="text-bold fill-N1" style="text-anchor:middle;font-size:16px">㈜아시아피플</text></g><g id="p"><g class="shape"><path fill="#EEF1F8" stroke="#0A0F25" d="M1554 449h145v66h-145z" class="stroke-B1 fill-B6" style="stroke-width:2"/></g><text x="1626.500000" y="487.500000" fill="#0A0F25" class="text-bold fill-N1" style="text-anchor:middle;font-size:16px">토스인컴㈜</text></g><g id="q"><g class="shape"><path fill="#EEF1F8" stroke="#0A0F25" d="M1719 449h185v66h-185z" class="stroke-B1 fill-B6" style="stroke-width:2"/></g><text x="1811.500000" y="487.500000" fill="#0A0F25" class="text-bold fill-N1" style="text-anchor:middle;font-size:16px">토스인사이트㈜</text></g><g id="r"><g class="shape"><path fill="#EEF1F8" stroke="#0A0F25" d="M1924 449h141v66h-141z" class="stroke-B1 fill-B6" style="stroke-width:2"/></g><text x="1994.500000" y="487.500000" fill="#0A0F25" class="text-bold fill-N1" style="text-anchor:middle;font-size:16px">Toss USA INC.</text></g><g id="s"><g class="shape"><path fill="#EEF1F8" stroke="#0A0F25" d="M125 676h248v66H125z" class="stroke-B1 fill-B6" style="stroke-width:2"/></g><text x="249.000000" y="714.500000" fill="#0A0F25" class="text-bold fill-N1" style="text-anchor:middle;font-size:16px">Toss Securities Americas Inc.</text></g><g id="u"><g class="shape"><path fill="#EEF1F8" stroke="#0A0F25" d="M165 913h169v66H165z" class="stroke-B1 fill-B6" style="stroke-width:2"/></g><text x="249.500000" y="951.500000" fill="#0A0F25" class="text-bold fill-N1" style="text-anchor:middle;font-size:16px">TSA Financial LLC</text></g><g id="(a -&gt; b)[0]"><marker id="mk-3488378134" markerHeight="12.000000" markerUnits="userSpaceOnUse" markerWidth="10.000000" orient="auto" refX="7.000000" refY="6.000000" viewBox="0.000000 0.000000 10.000000 12.000000"><path stroke-width="2" d="m0 0 10 6-10 6z" class="connection" style="fill:#0a0f25"/></marker><path fill="none" stroke="#0A0F25" marker-end="url(#mk-3488378134)" d="M856.166 80v28s0 10-10 10H94.5s-10 0-10 10v317" class="connection stroke-B1" mask="url(#d2-3922911491)" style="stroke-width:2"/><text x="324.500000" y="124.000000" fill="#676C7E" class="text-italic fill-N2" style="text-anchor:middle;font-size:16px">28.33%</text></g><g id="(a -&gt; c)[0]"><path fill="none" stroke="#0A0F25" marker-end="url(#mk-3488378134)" d="M892.833 80v78s0 10-10 10H259.5s-10 0-10 10v267" class="connection stroke-B1" mask="url(#d2-3922911491)" style="stroke-width:2"/><text x="476.000000" y="174.000000" fill="#676C7E" class="text-italic fill-N2" style="text-anchor:middle;font-size:16px">94.24%</text></g><g id="(a -&gt; d)[0]"><path fill="none" stroke="#0A0F25" marker-end="url(#mk-3488378134)" d="M929.5 80v128s0 10-10 10h-465s-10 0-10 10v217" class="connection stroke-B1" mask="url(#d2-3922911491)" style="stroke-width:2"/><text x="642.000000" y="224.000000" fill="#676C7E" class="text-italic fill-N2" style="text-anchor:middle;font-size:16px">100.00%</text></g><g id="(a -&gt; e)[0]"><path fill="none" stroke="#0A0F25" marker-end="url(#mk-3488378134)" d="M966.166 80v178s0 10-10 10H669.5s-10 0-10 10v167" class="connection stroke-B1" mask="url(#d2-3922911491)" style="stroke-width:2"/><text x="817.000000" y="274.000000" fill="#676C7E" class="text-italic fill-N2" style="text-anchor:middle;font-size:16px">58.50%</text></g><g id="(a -&gt; f)[0]"><path fill="none" stroke="#0A0F25" marker-end="url(#mk-3488378134)" d="M1002.833 80v228s0 10-10 10H864.5s-10 0-10 10v117" class="connection stroke-B1" mask="url(#d2-3922911491)" style="stroke-width:2"/><text x="983.000000" y="324.000000" fill="#676C7E" class="text-italic fill-N2" style="text-anchor:middle;font-size:16px">100.00%</text></g><g id="(a -&gt; g)[0]"><path fill="none" stroke="#0A0F25" marker-end="url(#mk-3488378134)" d="M1039.5 80v365" class="connection stroke-B1" mask="url(#d2-3922911491)" style="stroke-width:2"/><text x="1040.000000" y="269.000000" fill="#676C7E" class="text-italic fill-N2" style="text-anchor:middle;font-size:16px">60.00%</text></g><g id="(a -&gt; l)[0]"><path fill="none" stroke="#0A0F25" marker-end="url(#mk-3488378134)" d="M1076.166 80v228s0 10 10 10H1246.5s10 0 10 10v117" class="connection stroke-B1" mask="url(#d2-3922911491)" style="stroke-width:2"/><text x="1112.000000" y="324.000000" fill="#676C7E" class="text-italic fill-N2" style="text-anchor:middle;font-size:16px">94.44%</text></g><g id="(a -&gt; n)[0]"><path fill="none" stroke="#0A0F25" marker-end="url(#mk-3488378134)" d="M1112.833 80v178s0 10 10 10H1441.5s10 0 10 10v167" class="connection stroke-B1" mask="url(#d2-3922911491)" style="stroke-width:2"/><text x="1278.000000" y="274.000000" fill="#676C7E" class="text-italic fill-N2" style="text-anchor:middle;font-size:16px">100.00%</text></g><g id="(a -&gt; p)[0]"><path fill="none" stroke="#0A0F25" marker-end="url(#mk-3488378134)" d="M1149.5 80v128s0 10 10 10h457s10 0 10 10v217" class="connection stroke-B1" mask="url(#d2-3922911491)" style="stroke-width:2"/><text x="1434.000000" y="224.000000" fill="#676C7E" class="text-italic fill-N2" style="text-anchor:middle;font-size:16px">100.00%</text></g><g id="(a -&gt; q)[0]"><path fill="none" stroke="#0A0F25" marker-end="url(#mk-3488378134)" d="M1186.166 80v78s0 10 10 10H1801.5s10 0 10 10v267" class="connection stroke-B1" mask="url(#d2-3922911491)" style="stroke-width:2"/><text x="1594.000000" y="174.000000" fill="#676C7E" class="text-italic fill-N2" style="text-anchor:middle;font-size:16px">100.00%</text></g><g id="(a -&gt; r)[0]"><path fill="none" stroke="#0A0F25" marker-end="url(#mk-3488378134)" d="M1222.833 80v28s0 10 10 10H1984.5s10 0 10 10v317" class="connection stroke-B1" mask="url(#d2-3922911491)" style="stroke-width:2"/><text x="1754.000000" y="124.000000" fill="#676C7E" class="text-italic fill-N2" style="text-anchor:middle;font-size:16px">100.00%</text></g><g id="(c -&gt; s)[0]"><path fill="none" stroke="#0A0F25" marker-end="url(#mk-3488378134)" d="M249.5 517v155" class="connection stroke-B1" mask="url(#d2-3922911491)" style="stroke-width:2"/><text x="250.000000" y="601.000000" fill="#676C7E" class="text-italic fill-N2" style="text-anchor:middle;font-size:16px">100.00%</text></g><g id="(s -&gt; u)[0]"><path fill="none" stroke="#0A0F25" marker-end="url(#mk-3488378134)" d="M249.5 744v165" class="connection stroke-B1" mask="url(#d2-3922911491)" style="stroke-width:2"/><text x="250.000000" y="833.000000" fill="#676C7E" class="text-italic fill-N2" style="text-anchor:middle;font-size:16px">100.00%</text></g><g id="(g -&gt; h)[0]"><path fill="none" stroke="#0A0F25" marker-end="url(#mk-3488378134)" d="M1039.5 517v155" class="connection stroke-B1" mask="url(#d2-3922911491)" style="stroke-width:2"/><text x="1040.000000" y="601.000000" fill="#676C7E" class="text-italic fill-N2" style="text-anchor:middle;font-size:16px">100.00%</text></g><g id="(h -&gt; i)[0]"><path fill="none" stroke="#0A0F25" marker-end="url(#mk-3488378134)" d="M1001.333 744v28s0 10-10 10H910s-10 0-10 10v117" class="connection stroke-B1" mask="url(#d2-3922911491)" style="stroke-width:2"/><text x="905.000000" y="788.000000" fill="#676C7E" class="text-italic fill-N2" style="text-anchor:middle;font-size:16px">100.00%</text></g><g id="(h -&gt; j)[0]"><path fill="none" stroke="#0A0F25" marker-end="url(#mk-3488378134)" d="M1077.666 744v165" class="connection stroke-B1" mask="url(#d2-3922911491)" style="stroke-width:2"/><text x="1078.000000" y="833.000000" fill="#676C7E" class="text-italic fill-N2" style="text-anchor:middle;font-size:16px">100.00%</text></g><g id="(l -&gt; m)[0]"><path fill="none" stroke="#0A0F25" marker-end="url(#mk-3488378134)" d="M1256.5 517v155" class="connection stroke-B1" mask="url(#d2-3922911491)" style="stroke-width:2"/><text x="1257.000000" y="601.000000" fill="#676C7E" class="text-italic fill-N2" style="text-anchor:middle;font-size:16px">89.17%</text></g><g id="(n -&gt; o)[0]"><path fill="none" stroke="#0A0F25" marker-end="url(#mk-3488378134)" d="M1451.5 517v155" class="connection stroke-B1" mask="url(#d2-3922911491)" style="stroke-width:2"/><text x="1452.000000" y="601.000000" fill="#676C7E" class="text-italic fill-N2" style="text-anchor:middle;font-size:16px">100.00%</text></g><mask id="d2-3922911491" width="2255" height="1169" x="-89" y="-89" maskUnits="userSpaceOnUse"><path fill="#fff" d="M-89-89h2255v1169H-89z"/><path fill="rgba(0,0,0,0.75)" d="M959 34.5h160v21H959zM34.5 471.5h100v21h-100zM199.5 471.5h100v21h-100zM364.5 471.5h160v21h-160zM589.5 471.5h140v21h-140zM794.5 471.5h120v21h-120zM979.5 471.5h120v21h-120zM947.5 698.5h184v21h-184zM807.5 935.5h184v21h-184zM1056.5 935.5h244v21h-244zM1186.5 471.5h140v21h-140zM1196.5 698.5h120v21h-120zM1391.5 471.5h120v21h-120zM1391.5 698.5h120v21h-120zM1576.5 471.5h100v21h-100zM1741.5 471.5h140v21h-140zM1946.5 471.5h96v21h-96zM147.5 698.5h203v21h-203zM187.5 935.5h124v21h-124z"/><path d="M300 108h49v21h-49zM452 158h48v21h-48zM614 208h56v21h-56zM793 258h48v21h-48zM955 308h56v21h-56zM1016 253h48v21h-48zM1088 308h48v21h-48zM1250 258h56v21h-56zM1406 208h56v21h-56zM1566 158h56v21h-56zM1726 108h56v21h-56zM222 585h56v21h-56zM222 817h56v21h-56zM1012 585h56v21h-56zM877 772h56v21h-56zM1050 817h56v21h-56zM1233 585h48v21h-48zM1424 585h56v21h-56z"/></mask></svg></svg>