<?xml version="1.0" encoding="UTF-8"?>
<svg id="_레이어_2" data-name="레이어 2" xmlns="http://www.w3.org/2000/svg" viewBox="0 0 310 310">
  <defs>
    <style>
      .cls-1 {
        fill: #fff;
      }
    </style>
  </defs>
  <g id="_레이어_1-2" data-name="레이어 1">
    <path class="cls-1" d="M155,310C69.53,310,0,240.47,0,155S69.53,0,155,0s155,69.53,155,155-69.53,155-155,155ZM155,10C75.05,10,10,75.05,10,155s65.05,145,145,145,145-65.05,145-145S234.95,10,155,10Z"/>
    <path class="cls-1" d="M155,238.28c-2.88,0-70.81-.05-88.67-4.85-11.34-3.03-20.27-11.96-23.31-23.31-4.79-17.86-4.85-53.61-4.85-55.13s.06-37.26,4.85-55.13c3.04-11.34,11.97-20.27,23.31-23.31,17.86-4.79,85.79-4.85,88.67-4.85s70.81.05,88.67,4.85c11.34,3.04,20.27,11.97,23.31,23.31h0c4.77,17.86,4.85,53.61,4.85,55.12,0,1.52-.05,37.26-4.85,55.13-3.03,11.34-11.97,20.27-23.31,23.31-17.86,4.79-85.79,4.85-88.67,4.85ZM155,81.72c-.69,0-69.48.05-86.08,4.51-7.9,2.12-14.12,8.34-16.24,16.24-4.45,16.6-4.51,52.18-4.51,52.54s.05,35.94,4.51,52.54c2.12,7.9,8.34,14.12,16.24,16.24,16.61,4.45,85.39,4.51,86.08,4.51s69.48-.05,86.08-4.51c7.9-2.12,14.12-8.33,16.24-16.23,4.45-16.6,4.51-52.18,4.51-52.54s-.07-35.94-4.51-52.54c-2.11-7.9-8.33-14.12-16.24-16.23-16.61-4.45-85.39-4.51-86.08-4.51ZM127.61,197.21v-84.41l73.1,42.2-73.1,42.2ZM137.61,130.12v49.77l43.1-24.88-43.1-24.88Z"/>
  </g>
</svg>